Coordinates
version=1
nRows=31
nColumns=38
inDegrees=no

Units are S.I. units (second, meters, Newtons, ...)
If the header above contains a line with 'inDegrees', this indicates whether rotational values are in degrees (yes) or radians (no).

endheader
time	pelvis_tilt	pelvis_list	pelvis_rotation	pelvis_tx	pelvis_ty	pelvis_tz	hip_flexion_r	hip_adduction_r	hip_rotation_r	knee_angle_r	ankle_angle_r	subtalar_angle_r	mtp_angle_r	hip_flexion_l	hip_adduction_l	hip_rotation_l	knee_angle_l	ankle_angle_l	subtalar_angle_l	mtp_angle_l	lumbar_extension	lumbar_bending	lumbar_rotation	arm_flex_r	arm_add_r	arm_rot_r	elbow_flex_r	pro_sup_r	wrist_flex_r	wrist_dev_r	arm_flex_l	arm_add_l	arm_rot_l	elbow_flex_l	pro_sup_l	wrist_flex_l	wrist_dev_l
5	-0.251862	1.44354	-1.25732	0.819591	1.46685	0.952477	-0.00716421	-0.0402035	-0.0957486	0.381174	-0.311665	0	0	-0.0884497	-0.0747855	0.025968	0.169901	-0.386401	0	0	-0.573776	0.18445	-0.23255	-0.101505	-0.238496	0.024276	1.19457	1.5708	0	0	-0.294423	-0.129549	-0.326887	1.07436	1.5708	0	0
5.01	-0.260006	1.4432	-1.25211	0.819457	1.46648	0.952562	-0.00749584	-0.0392098	-0.0943314	0.380598	-0.311791	0	0	-0.0900586	-0.0755217	0.0266625	0.16884	-0.385951	0	0	-0.567556	0.183088	-0.236731	-0.090734	-0.242976	0.0380782	1.18698	1.5708	0	0	-0.297831	-0.128274	-0.332424	1.08119	1.5708	0	0
5.02	-0.240451	1.42552	-1.26335	0.820455	1.465	0.954017	0.0108795	-0.0361235	-0.307796	0.474165	-0.289331	0	0	-0.114513	-0.0793473	0.0315585	0.158934	-0.390191	0	0	-0.579744	0.189823	-0.233927	-0.0981657	-0.246068	0.0298173	1.19835	1.5708	0	0	-0.295393	-0.133457	-0.321656	1.08968	1.5708	0	0
5.03	-0.251607	1.42943	-1.25353	0.820815	1.46412	0.953822	0.0144066	-0.0370014	-0.310377	0.474454	-0.286473	0	0	-0.112717	-0.078531	0.0357978	0.155635	-0.391532	0	0	-0.559934	0.189888	-0.19094	-0.130706	-0.245662	-0.0165739	1.21134	1.5708	0	0	-0.25748	-0.149231	-0.266362	1.0634	1.5708	0	0
5.04	-0.271675	1.44002	-1.24444	0.820444	1.46486	0.952849	-0.0142679	-0.0394414	-0.103184	0.374794	-0.316482	0	0	-0.100115	-0.0750934	0.0351426	0.159511	-0.387095	0	0	-0.569005	0.18497	-0.231493	-0.0903629	-0.256357	0.0428593	1.20926	1.5708	0	0	-0.30431	-0.131236	-0.328746	1.11822	1.5708	0	0
5.05	-0.260486	1.42648	-1.24812	0.821029	1.46326	0.954101	0.00943245	-0.0364104	-0.312894	0.47256	-0.285394	0	0	-0.11993	-0.0792328	0.0398424	0.149094	-0.393416	0	0	-0.564275	0.189838	-0.2119	-0.106074	-0.25767	0.0206299	1.21274	1.5708	0	0	-0.280578	-0.144964	-0.293646	1.10254	1.5708	0	0
5.06	-0.267237	1.42692	-1.24333	0.820931	1.46278	0.954109	0.00919985	-0.0359648	-0.312985	0.47159	-0.286061	0	0	-0.12067	-0.0797406	0.0400728	0.147832	-0.392229	0	0	-0.558467	0.189001	-0.19747	-0.11452	-0.259623	0.0083821	1.22179	1.5708	0	0	-0.27	-0.152024	-0.276771	1.10182	1.5708	0	0
5.07	-0.26403	1.42297	-1.24884	0.820629	1.46265	0.95441	0.00377338	-0.0345284	-0.311389	0.46874	-0.288246	0	0	-0.126887	-0.0806982	0.0390072	0.144808	-0.394177	0	0	-0.564093	0.186382	-0.227379	-0.0806158	-0.267796	0.0563668	1.21011	1.5708	0	0	-0.296806	-0.14393	-0.314833	1.13273	1.5708	0	0
5.08	-0.264829	1.42187	-1.24978	0.820679	1.46237	0.954474	0.00196201	-0.0343012	-0.31139	0.467566	-0.290377	0	0	-0.129033	-0.0808641	0.0375264	0.144107	-0.394074	0	0	-0.569099	0.185696	-0.236359	-0.0700674	-0.272236	0.0716497	1.2163	1.5708	0	0	-0.308274	-0.142865	-0.327144	1.15255	1.5708	0	0
5.09	-0.265564	1.42215	-1.25007	0.820998	1.46198	0.954442	0.00133191	-0.0349381	-0.312011	0.4663	-0.292838	0	0	-0.129428	-0.0802555	0.036155	0.144098	-0.393763	0	0	-0.57053	0.18536	-0.240364	-0.0644721	-0.275655	0.079138	1.22247	1.5708	0	0	-0.313075	-0.143716	-0.331589	1.163	1.5708	0	0
5.1	-0.285319	1.43687	-1.24093	0.820518	1.46266	0.953207	-0.0227576	-0.0386891	-0.103998	0.365807	-0.319353	0	0	-0.110896	-0.0758536	0.0319185	0.151504	-0.389206	0	0	-0.561607	0.178252	-0.244335	-0.051269	-0.27975	0.096799	1.22344	1.5708	0	0	-0.321619	-0.14014	-0.345226	1.17341	1.5708	0	0
5.11	-0.267707	1.42251	-1.25117	0.820872	1.46146	0.954457	0.000738085	-0.0343819	-0.308603	0.464163	-0.293129	0	0	-0.12962	-0.0802552	0.0311026	0.145706	-0.392542	0	0	-0.565621	0.182662	-0.231973	-0.0630333	-0.279342	0.0794002	1.23119	1.5708	0	0	-0.30378	-0.151917	-0.320936	1.16026	1.5708	0	0
5.12	-0.274897	1.43169	-1.25355	0.820401	1.46248	0.953551	-0.0299755	-0.0380967	-0.102309	0.362648	-0.32358	0	0	-0.117404	-0.0763137	0.0266776	0.151992	-0.38789	0	0	-0.567727	0.174042	-0.288706	0.00280423	-0.284143	0.168092	1.20112	1.5708	0	0	-0.352544	-0.127038	-0.396014	1.201	1.5708	0	0
5.13	-0.273316	1.43062	-1.25574	0.820545	1.46233	0.95354	-0.0311932	-0.0382956	-0.102462	0.362904	-0.323668	0	0	-0.118906	-0.0763231	0.0250453	0.152071	-0.387679	0	0	-0.579811	0.173994	-0.299608	0.0107058	-0.28491	0.178802	1.21416	1.5708	0	0	-0.366763	-0.123571	-0.410949	1.22308	1.5708	0	0
5.14	-0.274215	1.43126	-1.25507	0.820542	1.46198	0.953559	-0.031061	-0.0382863	-0.102581	0.362446	-0.323833	0	0	-0.118932	-0.0765054	0.0239206	0.151567	-0.387842	0	0	-0.566479	0.173112	-0.292598	0.0130217	-0.285616	0.178226	1.20643	1.5708	0	0	-0.353057	-0.130373	-0.399295	1.2088	1.5708	0	0
5.15	-0.265585	1.42183	-1.25546	0.820982	1.46052	0.954479	-0.00110464	-0.0346847	-0.307572	0.464104	-0.290436	0	0	-0.132398	-0.080453	0.0251205	0.145259	-0.392483	0	0	-0.56062	0.178715	-0.264305	-0.0143785	-0.285229	0.138146	1.2176	1.5708	0	0	-0.320156	-0.150464	-0.352968	1.18131	1.5708	0	0
5.16	-0.278901	1.43366	-1.25158	0.82046	1.46141	0.953395	-0.0283253	-0.0382277	-0.10018	0.363604	-0.321841	0	0	-0.117535	-0.0764657	0.0214844	0.150644	-0.38869	0	0	-0.562021	0.17247	-0.287337	0.0154936	-0.287506	0.17854	1.21248	1.5708	0	0	-0.345719	-0.137301	-0.391989	1.20978	1.5708	0	0
5.17	-0.276973	1.43336	-1.25374	0.820483	1.46117	0.953393	-0.0288058	-0.0384625	-0.100137	0.363941	-0.321133	0	0	-0.118835	-0.0761634	0.0207583	0.149477	-0.388914	0	0	-0.561665	0.172389	-0.286549	0.0184663	-0.288251	0.180598	1.21465	1.5708	0	0	-0.34307	-0.139355	-0.391652	1.2123	1.5708	0	0
5.18	-0.275542	1.43332	-1.25543	0.820492	1.46092	0.95338	-0.0289265	-0.0387121	-0.100017	0.364408	-0.320438	0	0	-0.119794	-0.0759137	0.0201053	0.148631	-0.388959	0	0	-0.561694	0.172187	-0.2856	0.0202059	-0.286883	0.179591	1.21691	1.5708	0	0	-0.340806	-0.141604	-0.391028	1.21582	1.5708	0	0
5.19	-0.262606	1.42287	-1.25955	0.820994	1.4594	0.954383	-0.000418191	-0.0356182	-0.307348	0.466209	-0.287164	0	0	-0.13541	-0.0792395	0.0231446	0.140303	-0.393973	0	0	-0.546411	0.176845	-0.252813	-0.00559279	-0.285679	0.13884	1.21389	1.5708	0	0	-0.296241	-0.163362	-0.336142	1.17334	1.5708	0	0
5.2	-0.268393	1.43114	-1.26318	0.820473	1.46049	0.953502	-0.0318027	-0.0389749	-0.100555	0.364332	-0.321993	0	0	-0.125295	-0.0754193	0.0200813	0.143939	-0.389888	0	0	-0.559335	0.170796	-0.301486	0.0470725	-0.28431	0.209257	1.1993	1.5708	0	0	-0.346084	-0.139935	-0.408088	1.22507	1.5708	0	0
5.21	-0.265691	1.43084	-1.266	0.820561	1.46021	0.953478	-0.0323833	-0.0394703	-0.101424	0.364498	-0.321496	0	0	-0.126948	-0.0750148	0.0200574	0.142431	-0.389672	0	0	-0.558654	0.170675	-0.302172	0.0514668	-0.282863	0.211452	1.19792	1.5708	0	0	-0.34388	-0.141441	-0.409107	1.22745	1.5708	0	0
5.22	-0.261741	1.4302	-1.26971	0.820779	1.4599	0.953461	-0.0335044	-0.0403213	-0.10341	0.364649	-0.320125	0	0	-0.129185	-0.0744288	0.0204496	0.140557	-0.389172	0	0	-0.556459	0.170721	-0.30326	0.056789	-0.28114	0.213928	1.19426	1.5708	0	0	-0.340374	-0.142862	-0.409993	1.22736	1.5708	0	0
5.23	-0.26007	1.42993	-1.27151	0.820864	1.45967	0.953395	-0.0337651	-0.040671	-0.103886	0.365242	-0.318736	0	0	-0.130377	-0.0740278	0.0202177	0.139585	-0.389086	0	0	-0.558049	0.171065	-0.305568	0.0615102	-0.279449	0.216344	1.19541	1.5708	0	0	-0.340428	-0.143807	-0.41345	1.23246	1.5708	0	0
5.24	-0.239125	1.41262	-1.28348	0.821414	1.45866	0.954666	-0.0126514	-0.0369846	-0.311335	0.467127	-0.289815	0	0	-0.152996	-0.0781411	0.0215032	0.131563	-0.392801	0	0	-0.574488	0.177075	-0.316676	0.0682659	-0.276395	0.221401	1.19652	1.5708	0	0	-0.343389	-0.14529	-0.419625	1.24232	1.5708	0	0
5.25	-0.255467	1.42864	-1.27607	0.820928	1.45929	0.953361	-0.0351962	-0.0407589	-0.104192	0.365554	-0.322104	0	0	-0.133694	-0.0736703	0.0198517	0.136683	-0.389449	0	0	-0.556626	0.171604	-0.30992	0.0743374	-0.27459	0.222759	1.1894	1.5708	0	0	-0.335433	-0.146931	-0.417116	1.23528	1.5708	0	0
5.26	-0.25171	1.428	-1.27945	0.820955	1.45911	0.953366	-0.0359748	-0.0412272	-0.104883	0.366129	-0.32156	0	0	-0.135042	-0.0734716	0.0192374	0.136013	-0.389472	0	0	-0.55554	0.171931	-0.311725	0.0804463	-0.27204	0.225267	1.18627	1.5708	0	0	-0.331864	-0.148918	-0.417816	1.23572	1.5708	0	0
5.27	-0.249385	1.42731	-1.28111	0.820973	1.45896	0.953373	-0.0370181	-0.0419691	-0.105862	0.366839	-0.320356	0	0	-0.135864	-0.0737032	0.0185641	0.136508	-0.388834	0	0	-0.553712	0.172498	-0.314624	0.0881228	-0.268789	0.229021	1.18101	1.5708	0	0	-0.328527	-0.150776	-0.419132	1.23601	1.5708	0	0
5.28	-0.250175	1.42739	-1.27984	0.820913	1.45883	0.953312	-0.0368325	-0.0419562	-0.105125	0.367614	-0.320661	0	0	-0.13564	-0.0742757	0.0180347	0.136922	-0.389178	0	0	-0.553719	0.173686	-0.306416	0.0825949	-0.267	0.215753	1.18926	1.5708	0	0	-0.319013	-0.156477	-0.409138	1.23544	1.5708	0	0
5.29	-0.246139	1.42509	-1.28245	0.821066	1.45883	0.953353	-0.039284	-0.0420815	-0.106292	0.36863	-0.315562	0	0	-0.13759	-0.0745361	0.0177872	0.137672	-0.388131	0	0	-0.559275	0.174755	-0.328512	0.106775	-0.261716	0.242843	1.17761	1.5708	0	0	-0.333161	-0.150748	-0.43286	1.25224	1.5708	0	0
5.3	-0.223237	1.40781	-1.2952	0.821641	1.45797	0.954585	-0.0177119	-0.0396682	-0.314749	0.474057	-0.277729	0	0	-0.158682	-0.0783985	0.0186558	0.132113	-0.391679	0	0	-0.578607	0.181196	-0.3428	0.114696	-0.257431	0.248791	1.1813	1.5708	0	0	-0.338973	-0.15195	-0.441997	1.26674	1.5708	0	0
